<?xml version="1.0" encoding="utf-8"?>
<!-- Generator: Adobe Illustrator 15.0.0, SVG Export Plug-In . SVG Version: 6.00 Build 0)  -->
<!DOCTYPE svg PUBLIC "-//W3C//DTD SVG 1.1//EN" "http://www.w3.org/Graphics/SVG/1.1/DTD/svg11.dtd">
<svg version="1.1" id="Layer_1" xmlns="http://www.w3.org/2000/svg" xmlns:xlink="http://www.w3.org/1999/xlink" x="0px" y="0px"
	 width="526.229px" height="229.508px" viewBox="0 0 526.229 229.508" style="enable-background:new 0 0 526.229 229.508;"
	 xml:space="preserve">
<style type="text/css">
<![CDATA[
	.st0{fill:#FFFFFF;}
]]>
</style>
<g>
	<path class="st0" d="M86.389,86.116c-0.139,6.502-8.072,14.441-11.862,8.332c-2.065-4.681,3.12-13.182,7.928-13.335
		C86.322,81.112,86.423,84.579,86.389,86.116 M149.171,24.108c-5.953-8.007-18.832-8.501-31.853,1.172
		c-13.02,9.678-20.445,25.262-14.494,33.272c5.949,8.011,23.033,5.412,36.053-4.265C151.898,44.616,155.125,32.119,149.171,24.108
		 M92.857,3.85c-7.8-1.695-15.791,4.646-18.495,17.094c-2.702,12.459,1.065,25.545,8.867,27.235
		c7.798,1.695,16.678-8.645,19.383-21.098C105.317,14.634,100.657,5.542,92.857,3.85 M48.153,15.545
		c-5.867,2.69-7.947,10.7-3.63,20.118c4.319,9.419,13.126,16.104,18.995,13.415s6.573-13.729,2.256-23.153
		C61.463,16.505,54.024,12.855,48.153,15.545 M26.557,40.831c-3.021,3.535-2.08,9.284,3.38,13.948
		C35.398,59.441,42.983,60.964,46,57.43c3.019-3.54,0.334-10.797-5.13-15.455C35.409,37.307,29.577,37.297,26.557,40.831
		 M165.101,132.965c-3.661,0-6.624,2.965-6.624,6.623c0,3.656,2.963,6.617,6.624,6.617c3.653,0,6.622-2.961,6.622-6.617
		C171.723,135.93,168.754,132.965,165.101,132.965 M284.664,166.219c8.058,0,11.192-3.154,11.192-6.388
		c0-4.158-4.986-6.161-11.189-6.099c-6.343,0.063-10.839,2.41-10.839,6.151C273.828,162.944,276.601,166.219,284.664,166.219
		 M437.595,166.194c8.03,0,11.148-3.143,11.148-6.357c0-4.145-4.969-6.137-11.144-6.079c-6.314,0.062-10.803,2.403-10.803,6.127
		C426.797,162.934,429.564,166.194,437.595,166.194 M366.684,126.686c-3.477,0-6.288,2.813-6.288,6.29
		c0,3.472,2.812,6.286,6.288,6.286c3.473,0,6.287-2.814,6.287-6.286C372.971,129.499,370.156,126.686,366.684,126.686
		 M424.875,180.335c-1.072,4.202-6.61,15.278-20.731,17.048h-0.321c-6.55,0-12.957-3.438-17.675-9.242
		c-6.637,4.184-13.049,6.021-17.638,5.324c-9.957-1.514-12.939-9.452-13.801-14.577c-5.705,6.741-13.297,9.899-20.598,10.565
		c2.603,5.086,3.92,11.158,3.92,16.78c0,8.763-5.096,17.71-14.313,17.71c-12.87,0-20.596-18.076-21.597-35.682
		c-2.212,0.818-5.841,1.451-7.532-2.059c-2.041-4.229,3.021-8.139,7.281-10.545c0.759-35.09,16.118-59.91,32.722-59.91
		c5.573,0,12.304,3.401,12.304,13.592c0,10.686-6.337,24.369-16.564,36.576c-1.383,1.656-4.621,4.904-8.223,8.223
		c14.528,10.264,23.325-0.797,26.957-7.6c0.866-1.813,1.586-3.605,2.142-5.189c2.061-5.855,1.472-4.49,3.416-10.293
		c2.761-8.269,7.245-7.92,9.277-7.582c7.229,1.205,2.905,9.211,1.137,16.242l-0.081,0.173c-2.727,11.991-1.463,21.518,6.039,22.985
		c2.393,0.36,6.518-1.042,10.748-4.039c-9.883-25.58,5.213-55.865,20.849-58.779c5.21-0.977,12.064,0.931,13.785,10.151
		c1.8,9.675-1.801,23.155-9.294,35.985c-1.695,2.902-6.565,9.465-12.349,14.434c0.038,0.049,0.074,0.098,0.058,0.105
		c4.386,5.746,9.916,5.605,9.916,5.605c8.205-0.053,10.674-6.332,11.692-8.929c1.161-2.981,3.536-3.78,6.07-2.977
		C425.199,175.303,425.396,178.305,424.875,180.335 M514.451,203.674c-8.772-0.445-17.886-6.879-25.97-16.023
		c-14.315,3.244-28.967,3.894-39.193,3.817c-8.481,8.696-16.592,15.94-22.38,20.056c0,0-7.826,5.884-11.622,0.885
		c-2.214-3.355-1.09-6.977,5.009-10.818c3.81-2.395,8.587-6.283,13.769-11.072c-8.755-2.387-6.593-11.447,1.953-10.403
		c0.618,0.076,3.458,0.475,7.817,0.79c8.48-8.807,17.101-18.945,23.745-28.234c-3.132-8.15-4.961-15.887-4.961-21.957
		c0-7.973,4.569-16.988,13.85-16.988c8.989,0,13.588,7.47,13.588,15.188c0,6.558-4.016,15.45-10.14,25.031
		c3.498,7.466,8.059,15.229,13.159,21.864c5.501-1.789,10.922-4.139,16.021-7.174c6.869-4.097,12.776,3.795,5.568,8.857
		c-4.338,2.717-9.141,4.92-14.166,6.711c5.295,5.088,10.859,8.512,16.229,8.975C525.907,193.965,526.281,204.629,514.451,203.674
		 M131.447,99.103c0-4.539-12.477-13.146-21.29-13.952c0.106,2.443,0.087,4.975-0.063,7.597c-0.346,6.205-1.283,12.458-2.746,18.597
		C123.532,100.155,131.447,103.223,131.447,99.103 M274.77,181.045c-5.313,0.456-6.488,11.912-17.092,12.469
		c-7.247,0.379-10.565-8.186-10.565-8.186s20.496-8.941,20.343-28.248c-0.32-5.543-3.246-14.402-14.091-14.402
		c-4.682,0-9.866,2.859-12.943,6.016c1.053-5.219,2.027-11.936,2.496-21.055c0.308-5.926-4.089-6.497-5.794-6.411
		c-1.264,0.062-4.942,0.976-5.441,6.331c-1.672,17.916-1.923,20.574-3.439,31.955c-2.79,20.916-18.188,28.199-28.216,27.643
		c-4.27-0.242-10.941-2.43-10.941-13.488c0-11.863,7.873-20.655,12.051-20.118c2.939,0.379,4.457,3.323,1.844,7.536
		c-2.107,3.481-4.321,8.335,1.129,10.338c6.469,2.115,11.258-6.867,11.43-15.193c0-6.495-4.25-14.068-14.666-14.559
		c-10.965-0.522-24.057,13.793-24.057,33.028c0,1.601,0.11,3.108,0.321,4.529c-0.784,4.346-4.666,8.804-8.529,8.804
		c-4.193,0-7.729-5.951-7.28-13.543c0.46-7.824,2.963-13.041,4.015-16.162c2.172-6.469-0.399-7.781-3.459-8.338
		c-2.391-0.432-6.204,0.162-8.206,6.6c-1.826,5.85-4.195,13.837-6.254,19.691c-1.287,3.664-2.926,7.813-5.081,10.668
		c-1.898,2.042-3.942,3.379-5.865,3.379c-6.772,0.055-1.036-13.092-1.036-22.117c-0.063-2.535-2.095-7.192-8.842-5.906
		c7.467-10.666,11.253-19.791,11.018-29.123c-0.457-10.238-8.059-13.217-13.808-13.105c-15.383,0.303-23.434,17.145-26.354,56.496
		c-13.865,13.048-30.761,20.92-46.859,19.625c-22.784-1.827-34.534-24.096-33.004-50.773c2.133-37.448,31.779-82.621,60.042-79.844
		c9.913,0.975,16.744,9.687,15.686,28.599c-1.223,21.896-17.064,53.839-33.783,52.901c-7.722-0.432-10.128-8.318-9.541-15.282
		c1.271-15.09,8.961-19.234,9.47-25.349c0.298-3.596-3.4-5.171-6.104-4.312c-4.655,1.484-13.923,12.988-15.058,29.344
		c-1.377,19.974,11.835,26.214,19.663,26.649c23.159,1.297,45.765-30.996,47.667-64.917c1.225-21.958-8.366-36.145-26.516-38.091
		c-35.29-3.779-72.361,42.37-74.26,90.705c-1.137,28.902,12.848,59.155,45.496,61.46c15.591,0.995,31.901-5.131,46.174-16.117
		c-0.024,2.448,0,4.646-0.004,6.294c0.125,4.05,1.584,7.543,6.05,7.4c4.257-0.134,5.374-3.213,5.279-6.898
		c-0.053-2.139-0.039-4.212,0.015-6.236c0.926-17.601,9.734-20.146,13.299-19.518c4.922,1.035,1.002,5.49,1.487,18.125
		c0.353,9.049,7.772,11.457,11.19,11.457c8.061,0,15.063-5.809,19.164-14.459l0.151-0.1c3.558,8.864,9.594,12.04,14.421,12.04
		c5.654,0,11.008-4.122,14.365-8.696c4.577,5.704,11.307,8.213,16.339,8.443c10.192,0.463,18.855-4.17,25.363-10.396
		c-0.759,4.906-1.672,11.484-1.672,12.555c0,2.91,1.374,4.963,4.246,5.281c4.744,0.518,8.207-2.645,9.68-18.149
		c0,0,6.706,15.309,21.584,15.309c14.908,0,21.361-14.245,21.361-18.581C278.846,183.774,278.366,180.739,274.77,181.045
		 M313.37,168.747c13.229-12.426,23.536-30.131,23.474-39.623c0-1.82-0.433-3.434-2.251-3.434
		C330.448,125.69,316.957,138.762,313.37,168.747 M323.582,188.401c-4.592-1.386-8.396-3.859-10.631-6.49
		c-0.168,0.119-0.327,0.235-0.479,0.35c-0.025,0.212-0.072,0.412-0.131,0.611c-0.121,16.111,5.691,31.002,12.14,30.301
		C331.273,212.042,328.063,198.225,323.582,188.401 M390.729,171.69c11.643-12.82,17.6-32.039,16.223-39.92
		c-0.306-1.652-0.964-2.926-2.677-2.719C398.832,129.706,386.154,152.946,390.729,171.69 M474.921,141.278
		c2.676-4.797,4.345-8.979,4.582-12.086c0.235-1.846-0.091-5.029-2.849-5.029C471.867,124.163,471.867,131.444,474.921,141.278
		 M481.543,178.813c-3.236-4.617-6.204-9.572-8.777-14.592c-4.294,5.75-9.077,11.537-13.977,17.046
		C465.643,181.098,473.49,180.436,481.543,178.813 M119.243,155.317c-2.678,3.854-6.055,8.1-10.2,12.809
		c0.22-1.932,0.447-3.773,0.676-5.541c3.335-25.195,8.243-33.662,14.653-32.592c2.076,0.413,2.93,2.545,2.986,4.27
		C127.827,139.75,125.372,146.499,119.243,155.317 M251.348,153.286c4.235,0,5.238,4.002,5.038,6.234
		c-0.831,9.252-14.098,16.766-17.454,17.146C240.726,157.545,246.664,153.502,251.348,153.286"/>
	<path class="st0" d="M508.394,118.588c-7.036,0-12.757,5.695-12.757,12.736s5.721,12.752,12.757,12.752
		c7.04,0,12.746-5.711,12.746-12.752S515.434,118.588,508.394,118.588 M508.394,141.569c-5.653,0-10.249-4.582-10.249-10.244
		c0-5.648,4.596-10.225,10.249-10.225c5.656,0,10.249,4.576,10.249,10.225C518.643,136.987,514.05,141.569,508.394,141.569"/>
	<path class="st0" d="M509.722,130.075c-0.479,0.324-1.168,0.09-2.054,0.09h-0.797v-3.539h0.267c0.941,0,1.65,0.34,2.161,0.525
		c0.768,0.28,1.152,0.701,1.152,1.428C510.451,129.309,510.227,129.752,509.722,130.075 M506.871,133.702h0.162l0.805-0.146
		c0.566,0.057,1.02,0.022,1.287,0.137c0.497,0.172,0.869,0.469,1.041,0.931c0.125,0.278,0.198,0.411,0.213,1.204
		c0.038,0.802,0.119,1.413,0.234,1.413h3.575l-0.135,0.014c-0.045-0.124-0.083-0.05-0.083-0.19
		c-0.014-0.123-0.023-0.058-0.023-0.189v-1.172c0-1.363-0.422-2.349-1.283-2.973c-0.44-0.337-1.129-0.585-2.012-0.755
		c0.993-0.101,1.807-0.407,2.476-0.897c0.667-0.484,1.002-1.302,1.002-2.416c0-1.453-0.632-2.514-1.911-3.145
		c-0.743-0.379-1.661-0.611-2.814-0.697c-0.188-0.004-0.74-0.004-2.513-0.014c-1.768-0.005-3.56-0.005-3.56-0.005v12.439h3.539
		V133.702z"/>
</g>
</svg>
